# xmcd CD database file
#
# Track frame offsets:
#	150
#	14637
#	27688
#	43967
#	56829
#	71259
#	89684
#	108682
#	126008
#	141364
#	159386
#	176840
#
# Disc length: 2523 seconds
#
# Revision: 1
# Processed by: cddbd v1.5.2PL0 Copyright (c) Steve Scherf et al.
# Submitted via: CDex 1.70beta2
#
DISCID=b809d90c
DTITLE=Rorey Wesney - Rorey Wesney
DYEAR=2008
DGENRE=Country
TTITLE0=Take My Hand
TTITLE1=Dr. 2 Step
TTITLE2=We All Gotta Live Here
TTITLE3=High 'N' Dry
TTITLE4=Love My Dog
TTITLE5=Your Turn to Cry
TTITLE6=Missin' You in Mexico
TTITLE7=Dark Coat Mine
TTITLE8=Don't Tell Me Your Not in Love
TTITLE9=One Less Fool in Amarillo
TTITLE10=Any Other Way
TTITLE11=Friday Night
EXTD=YEAR: 2008
EXTT0=
EXTT1=
EXTT2=
EXTT3=
EXTT4=
EXTT5=
EXTT6=
EXTT7=
EXTT8=
EXTT9=
EXTT10=
EXTT11=
PLAYORDER=
